<?xml version="1.0" encoding="utf-8"?>
<!-- Generator: Adobe Illustrator 23.0.5, SVG Export Plug-In . SVG Version: 6.00 Build 0)  -->
<svg version="1.1" id="Layer_1" xmlns="http://www.w3.org/2000/svg" xmlns:xlink="http://www.w3.org/1999/xlink" x="0px" y="0px"
	 viewBox="0 0 800 800" style="enable-background:new 0 0 800 800;" xml:space="preserve">
<style type="text/css">
	.st0{fill:#FFFFFF;stroke:#000000;stroke-miterlimit:10;}
</style>
<path class="st0" d="M398.9,691.2c-60.3,0-104-130-104-291.2s43.7-291.2,104-291.2s104,130,104,291.2S459.2,691.2,398.9,691.2z
	 M398.9,670.4c42.6,0,83.2-120.7,83.2-270.4s-40.6-270.4-83.2-270.4S315.7,250.2,315.7,400S356.3,670.4,398.9,670.4z"/>
<path class="st0" d="M147.2,545.6c-31.2-52,60.3-155,199.7-236.1s273.5-107.1,303.7-55.1c30.2,52-60.3,155-199.7,236.1
	S177.4,597.6,147.2,545.6z M164.9,535.2c21.8,37.4,146.7,11.4,275.6-63.4s214.3-169.5,192.4-207c-21.8-37.4-146.7-11.4-275.6,63.4
	S143,497.8,164.9,535.2z"/>
<path class="st0" d="M650.6,545.6c-30.2,52-165.4,25-303.7-55.1S116,306.4,147.2,254.4s165.4-25,303.7,55.1S681.8,493.6,650.6,545.6
	z M632.9,535.2c21.8-37.4-63.4-132.1-192.4-207s-254.8-100.9-275.6-63.4s63.4,132.1,192.4,207S612.1,572.7,632.9,535.2z"/>
<path class="st0" d="M398.9,452c-29.1,0-52-22.9-52-52s22.9-52,52-52s52,22.9,52,52S428,452,398.9,452z M242.9,270
	c-17.7,0-31.2-13.5-31.2-31.2s13.5-31.2,31.2-31.2s31.2,13.5,31.2,31.2S260.6,270,242.9,270z M336.5,639.2
	c-17.7,0-31.2-13.5-31.2-31.2c0-17.7,13.5-31.2,31.2-31.2s31.2,13.5,31.2,31.2C367.7,625.7,354.2,639.2,336.5,639.2z M627.7,358.4
	c-17.7,0-31.2-13.5-31.2-31.2c0-17.7,13.5-31.2,31.2-31.2s31.2,13.5,31.2,31.2C658.9,344.9,645.4,358.4,627.7,358.4z"/>
</svg>
